<?xml version="1.0" standalone="no"?>
<!DOCTYPE svg PUBLIC "-//W3C//DTD SVG 20010904//EN"
 "http://www.w3.org/TR/2001/REC-SVG-20010904/DTD/svg10.dtd">
<svg version="1.0" xmlns="http://www.w3.org/2000/svg"
 width="480.000000pt" height="270.000000pt" viewBox="0 0 480.000000 270.000000"
 preserveAspectRatio="xMidYMid meet">
<metadata>
Created by potrace 1.16, written by Peter Selinger 2001-2019
</metadata>
<g transform="translate(0.000000,270.000000) scale(0.100000,-0.100000)"
fill="#000000" stroke="none">
<path d="M1009 2605 c-71 -20 -151 -62 -200 -108 -44 -40 -119 -136 -119 -152
0 -4 -6 -21 -14 -38 -8 -18 -19 -56 -25 -85 -15 -73 -15 -1671 0 -1744 21
-103 60 -176 134 -252 61 -62 133 -104 223 -132 71 -21 2724 -21 2795 1 64 19
141 59 189 96 35 28 128 147 128 164 0 4 6 21 14 38 35 81 36 106 36 957 0
851 -1 876 -36 957 -8 17 -14 34 -14 38 0 3 -20 34 -44 68 -50 71 -103 116
-176 153 -112 56 -48 54 -1503 53 -1040 -1 -1352 -4 -1388 -14z m1120 -749
c64 -40 136 -83 161 -96 24 -14 116 -69 204 -122 87 -54 161 -98 163 -98 3 0
74 -43 159 -95 85 -52 159 -95 164 -95 6 0 10 -6 10 -13 0 -8 -91 -64 -202
-126 -112 -61 -228 -125 -258 -142 -30 -17 -75 -43 -100 -56 -25 -14 -70 -39
-100 -55 -51 -28 -124 -68 -195 -108 -16 -9 -57 -32 -90 -50 -33 -18 -69 -39
-80 -46 -11 -8 -24 -14 -29 -14 -9 0 -2 770 11 1067 l6 152 30 -16 c17 -8 83
-48 146 -87z"/>
</g>
</svg>
